%FSLAX45Y45*%
G04 Gerber Fmt 4.5, Leading zero omitted, Abs format (unit mm)*
G04 Created by KiCad (PCBNEW 4.0.2-stable) date 07/05/2016 12:54:47*
%MOMM*%
G01*
G04 APERTURE LIST*
%ADD10C,0.127000*%
%ADD11C,0.150000*%
%ADD12C,0.200000*%
%ADD13C,0.300000*%
G04 APERTURE END LIST*
D10*
D11*
X16078200Y-9245600D02*
X15519400Y-9245600D01*
X16078200Y-10972800D02*
X16078200Y-9245600D01*
X15519400Y-10972800D02*
X16078200Y-10972800D01*
X13233400Y-9245600D02*
X13335000Y-9245600D01*
X13233400Y-10972800D02*
X13233400Y-9245600D01*
X15519400Y-10972800D02*
X13233400Y-10972800D01*
X13335000Y-9245600D02*
X15519400Y-9245600D01*
D12*
X14966000Y-9581200D02*
X15006000Y-9621200D01*
X15006000Y-9581200D02*
X14966000Y-9621200D01*
X15194600Y-9505000D02*
X15234600Y-9545000D01*
X15234600Y-9505000D02*
X15194600Y-9545000D01*
X14335304Y-10667746D02*
G75*
G03X14335304Y-10667746I-35052J0D01*
G01*
X15351304Y-10667746D02*
G75*
G03X15351304Y-10667746I-35052J0D01*
G01*
X14359000Y-10196200D02*
X14359000Y-10276200D01*
X14319000Y-10236200D02*
X14399000Y-10236200D01*
X14859000Y-10196200D02*
X14859000Y-10276200D01*
X14819000Y-10236200D02*
X14899000Y-10236200D01*
X15497337Y-9604537D02*
X15497337Y-9547063D01*
X15439863Y-9547063D01*
X15439863Y-9604537D01*
X15497337Y-9604537D01*
X15497337Y-10366537D02*
X15497337Y-10309063D01*
X15439863Y-10309063D01*
X15439863Y-10366537D01*
X15497337Y-10366537D01*
X15878337Y-9604537D02*
X15878337Y-9547063D01*
X15820863Y-9547063D01*
X15820863Y-9604537D01*
X15878337Y-9604537D01*
X15878337Y-10366537D02*
X15878337Y-10309063D01*
X15820863Y-10309063D01*
X15820863Y-10366537D01*
X15878337Y-10366537D01*
X14351000Y-9651238D02*
X14401038Y-9601200D01*
X14351000Y-9551162D01*
X14300962Y-9601200D01*
X14351000Y-9651238D01*
X14605000Y-9651238D02*
X14655038Y-9601200D01*
X14605000Y-9551162D01*
X14554962Y-9601200D01*
X14605000Y-9651238D01*
X13639800Y-9525000D02*
X13792200Y-9677400D01*
X13792200Y-9525000D02*
X13639800Y-9677400D01*
X13792200Y-9601200D02*
G75*
G03X13792200Y-9601200I-76200J0D01*
G01*
X13639800Y-10033000D02*
X13792200Y-10185400D01*
X13792200Y-10033000D02*
X13639800Y-10185400D01*
X13792200Y-10109200D02*
G75*
G03X13792200Y-10109200I-76200J0D01*
G01*
X13639800Y-10541000D02*
X13792200Y-10693400D01*
X13792200Y-10541000D02*
X13639800Y-10693400D01*
X13792200Y-10617200D02*
G75*
G03X13792200Y-10617200I-76200J0D01*
G01*
D13*
X13497328Y-11446014D02*
X13497328Y-11146014D01*
X13568757Y-11146014D01*
X13611614Y-11160300D01*
X13640186Y-11188871D01*
X13654471Y-11217443D01*
X13668757Y-11274586D01*
X13668757Y-11317443D01*
X13654471Y-11374586D01*
X13640186Y-11403157D01*
X13611614Y-11431729D01*
X13568757Y-11446014D01*
X13497328Y-11446014D01*
X13797328Y-11446014D02*
X13797328Y-11246014D01*
X13797328Y-11303157D02*
X13811614Y-11274586D01*
X13825900Y-11260300D01*
X13854471Y-11246014D01*
X13883043Y-11246014D01*
X13983043Y-11446014D02*
X13983043Y-11246014D01*
X13983043Y-11146014D02*
X13968757Y-11160300D01*
X13983043Y-11174586D01*
X13997328Y-11160300D01*
X13983043Y-11146014D01*
X13983043Y-11174586D01*
X14168757Y-11446014D02*
X14140186Y-11431729D01*
X14125900Y-11403157D01*
X14125900Y-11146014D01*
X14325900Y-11446014D02*
X14297328Y-11431729D01*
X14283043Y-11403157D01*
X14283043Y-11146014D01*
X14668757Y-11446014D02*
X14668757Y-11146014D01*
X14768757Y-11360300D01*
X14868757Y-11146014D01*
X14868757Y-11446014D01*
X15140186Y-11446014D02*
X15140186Y-11288871D01*
X15125900Y-11260300D01*
X15097328Y-11246014D01*
X15040186Y-11246014D01*
X15011614Y-11260300D01*
X15140186Y-11431729D02*
X15111614Y-11446014D01*
X15040186Y-11446014D01*
X15011614Y-11431729D01*
X14997328Y-11403157D01*
X14997328Y-11374586D01*
X15011614Y-11346014D01*
X15040186Y-11331729D01*
X15111614Y-11331729D01*
X15140186Y-11317443D01*
X15283043Y-11246014D02*
X15283043Y-11546014D01*
X15283043Y-11260300D02*
X15311614Y-11246014D01*
X15368757Y-11246014D01*
X15397328Y-11260300D01*
X15411614Y-11274586D01*
X15425900Y-11303157D01*
X15425900Y-11388871D01*
X15411614Y-11417443D01*
X15397328Y-11431729D01*
X15368757Y-11446014D01*
X15311614Y-11446014D01*
X15283043Y-11431729D01*
X15554471Y-11417443D02*
X15568757Y-11431729D01*
X15554471Y-11446014D01*
X15540186Y-11431729D01*
X15554471Y-11417443D01*
X15554471Y-11446014D01*
X15554471Y-11260300D02*
X15568757Y-11274586D01*
X15554471Y-11288871D01*
X15540186Y-11274586D01*
X15554471Y-11260300D01*
X15554471Y-11288871D01*
X13185900Y-11920300D02*
X13225900Y-11960300D01*
X13225900Y-11920300D02*
X13185900Y-11960300D01*
X13554471Y-11776014D02*
X13583043Y-11776014D01*
X13611614Y-11790300D01*
X13625900Y-11804586D01*
X13640186Y-11833157D01*
X13654471Y-11890300D01*
X13654471Y-11961729D01*
X13640186Y-12018871D01*
X13625900Y-12047443D01*
X13611614Y-12061729D01*
X13583043Y-12076014D01*
X13554471Y-12076014D01*
X13525900Y-12061729D01*
X13511614Y-12047443D01*
X13497328Y-12018871D01*
X13483043Y-11961729D01*
X13483043Y-11890300D01*
X13497328Y-11833157D01*
X13511614Y-11804586D01*
X13525900Y-11790300D01*
X13554471Y-11776014D01*
X13783043Y-12047443D02*
X13797328Y-12061729D01*
X13783043Y-12076014D01*
X13768757Y-12061729D01*
X13783043Y-12047443D01*
X13783043Y-12076014D01*
X14054471Y-11876014D02*
X14054471Y-12076014D01*
X13983043Y-11761729D02*
X13911614Y-11976014D01*
X14097328Y-11976014D01*
X14268757Y-11776014D02*
X14297328Y-11776014D01*
X14325900Y-11790300D01*
X14340186Y-11804586D01*
X14354471Y-11833157D01*
X14368757Y-11890300D01*
X14368757Y-11961729D01*
X14354471Y-12018871D01*
X14340186Y-12047443D01*
X14325900Y-12061729D01*
X14297328Y-12076014D01*
X14268757Y-12076014D01*
X14240186Y-12061729D01*
X14225900Y-12047443D01*
X14211614Y-12018871D01*
X14197328Y-11961729D01*
X14197328Y-11890300D01*
X14211614Y-11833157D01*
X14225900Y-11804586D01*
X14240186Y-11790300D01*
X14268757Y-11776014D01*
X14497328Y-12076014D02*
X14497328Y-11876014D01*
X14497328Y-11904586D02*
X14511614Y-11890300D01*
X14540186Y-11876014D01*
X14583043Y-11876014D01*
X14611614Y-11890300D01*
X14625900Y-11918871D01*
X14625900Y-12076014D01*
X14625900Y-11918871D02*
X14640186Y-11890300D01*
X14668757Y-11876014D01*
X14711614Y-11876014D01*
X14740186Y-11890300D01*
X14754471Y-11918871D01*
X14754471Y-12076014D01*
X14897328Y-12076014D02*
X14897328Y-11876014D01*
X14897328Y-11904586D02*
X14911614Y-11890300D01*
X14940186Y-11876014D01*
X14983043Y-11876014D01*
X15011614Y-11890300D01*
X15025900Y-11918871D01*
X15025900Y-12076014D01*
X15025900Y-11918871D02*
X15040186Y-11890300D01*
X15068757Y-11876014D01*
X15111614Y-11876014D01*
X15140186Y-11890300D01*
X15154471Y-11918871D01*
X15154471Y-12076014D01*
X15740186Y-11761729D02*
X15483043Y-12147443D01*
X16125900Y-11776014D02*
X16154471Y-11776014D01*
X16183043Y-11790300D01*
X16197328Y-11804586D01*
X16211614Y-11833157D01*
X16225900Y-11890300D01*
X16225900Y-11961729D01*
X16211614Y-12018871D01*
X16197328Y-12047443D01*
X16183043Y-12061729D01*
X16154471Y-12076014D01*
X16125900Y-12076014D01*
X16097328Y-12061729D01*
X16083043Y-12047443D01*
X16068757Y-12018871D01*
X16054471Y-11961729D01*
X16054471Y-11890300D01*
X16068757Y-11833157D01*
X16083043Y-11804586D01*
X16097328Y-11790300D01*
X16125900Y-11776014D01*
X16354471Y-12047443D02*
X16368757Y-12061729D01*
X16354471Y-12076014D01*
X16340186Y-12061729D01*
X16354471Y-12047443D01*
X16354471Y-12076014D01*
X16554471Y-11776014D02*
X16583043Y-11776014D01*
X16611614Y-11790300D01*
X16625900Y-11804586D01*
X16640185Y-11833157D01*
X16654471Y-11890300D01*
X16654471Y-11961729D01*
X16640185Y-12018871D01*
X16625900Y-12047443D01*
X16611614Y-12061729D01*
X16583043Y-12076014D01*
X16554471Y-12076014D01*
X16525900Y-12061729D01*
X16511614Y-12047443D01*
X16497328Y-12018871D01*
X16483043Y-11961729D01*
X16483043Y-11890300D01*
X16497328Y-11833157D01*
X16511614Y-11804586D01*
X16525900Y-11790300D01*
X16554471Y-11776014D01*
X16940186Y-12076014D02*
X16768757Y-12076014D01*
X16854471Y-12076014D02*
X16854471Y-11776014D01*
X16825900Y-11818871D01*
X16797328Y-11847443D01*
X16768757Y-11861729D01*
X17197328Y-11776014D02*
X17140186Y-11776014D01*
X17111614Y-11790300D01*
X17097328Y-11804586D01*
X17068757Y-11847443D01*
X17054471Y-11904586D01*
X17054471Y-12018871D01*
X17068757Y-12047443D01*
X17083043Y-12061729D01*
X17111614Y-12076014D01*
X17168757Y-12076014D01*
X17197328Y-12061729D01*
X17211614Y-12047443D01*
X17225900Y-12018871D01*
X17225900Y-11947443D01*
X17211614Y-11918871D01*
X17197328Y-11904586D01*
X17168757Y-11890300D01*
X17111614Y-11890300D01*
X17083043Y-11904586D01*
X17068757Y-11918871D01*
X17054471Y-11947443D01*
X17340186Y-11776014D02*
X17340186Y-11833157D01*
X17454471Y-11776014D02*
X17454471Y-11833157D01*
X17897328Y-12190300D02*
X17883043Y-12176014D01*
X17854471Y-12133157D01*
X17840186Y-12104586D01*
X17825900Y-12061729D01*
X17811614Y-11990300D01*
X17811614Y-11933157D01*
X17825900Y-11861729D01*
X17840186Y-11818871D01*
X17854471Y-11790300D01*
X17883043Y-11747443D01*
X17897328Y-11733157D01*
X17997328Y-11804586D02*
X18011614Y-11790300D01*
X18040186Y-11776014D01*
X18111614Y-11776014D01*
X18140186Y-11790300D01*
X18154471Y-11804586D01*
X18168757Y-11833157D01*
X18168757Y-11861729D01*
X18154471Y-11904586D01*
X17983043Y-12076014D01*
X18168757Y-12076014D01*
X18525900Y-12076014D02*
X18525900Y-11776014D01*
X18654471Y-12076014D02*
X18654471Y-11918871D01*
X18640186Y-11890300D01*
X18611614Y-11876014D01*
X18568757Y-11876014D01*
X18540186Y-11890300D01*
X18525900Y-11904586D01*
X18840186Y-12076014D02*
X18811614Y-12061729D01*
X18797328Y-12047443D01*
X18783043Y-12018871D01*
X18783043Y-11933157D01*
X18797328Y-11904586D01*
X18811614Y-11890300D01*
X18840186Y-11876014D01*
X18883043Y-11876014D01*
X18911614Y-11890300D01*
X18925900Y-11904586D01*
X18940186Y-11933157D01*
X18940186Y-12018871D01*
X18925900Y-12047443D01*
X18911614Y-12061729D01*
X18883043Y-12076014D01*
X18840186Y-12076014D01*
X19111614Y-12076014D02*
X19083043Y-12061729D01*
X19068757Y-12033157D01*
X19068757Y-11776014D01*
X19340186Y-12061729D02*
X19311614Y-12076014D01*
X19254471Y-12076014D01*
X19225900Y-12061729D01*
X19211614Y-12033157D01*
X19211614Y-11918871D01*
X19225900Y-11890300D01*
X19254471Y-11876014D01*
X19311614Y-11876014D01*
X19340186Y-11890300D01*
X19354471Y-11918871D01*
X19354471Y-11947443D01*
X19211614Y-11976014D01*
X19468757Y-12061729D02*
X19497329Y-12076014D01*
X19554471Y-12076014D01*
X19583043Y-12061729D01*
X19597329Y-12033157D01*
X19597329Y-12018871D01*
X19583043Y-11990300D01*
X19554471Y-11976014D01*
X19511614Y-11976014D01*
X19483043Y-11961729D01*
X19468757Y-11933157D01*
X19468757Y-11918871D01*
X19483043Y-11890300D01*
X19511614Y-11876014D01*
X19554471Y-11876014D01*
X19583043Y-11890300D01*
X19697328Y-12190300D02*
X19711614Y-12176014D01*
X19740186Y-12133157D01*
X19754471Y-12104586D01*
X19768757Y-12061729D01*
X19783043Y-11990300D01*
X19783043Y-11933157D01*
X19768757Y-11861729D01*
X19754471Y-11818871D01*
X19740186Y-11790300D01*
X19711614Y-11747443D01*
X19697328Y-11733157D01*
X13225900Y-12336300D02*
G75*
G03X13225900Y-12336300I-35052J0D01*
G01*
X13554471Y-12172014D02*
X13583043Y-12172014D01*
X13611614Y-12186300D01*
X13625900Y-12200586D01*
X13640186Y-12229157D01*
X13654471Y-12286300D01*
X13654471Y-12357729D01*
X13640186Y-12414871D01*
X13625900Y-12443443D01*
X13611614Y-12457729D01*
X13583043Y-12472014D01*
X13554471Y-12472014D01*
X13525900Y-12457729D01*
X13511614Y-12443443D01*
X13497328Y-12414871D01*
X13483043Y-12357729D01*
X13483043Y-12286300D01*
X13497328Y-12229157D01*
X13511614Y-12200586D01*
X13525900Y-12186300D01*
X13554471Y-12172014D01*
X13783043Y-12443443D02*
X13797328Y-12457729D01*
X13783043Y-12472014D01*
X13768757Y-12457729D01*
X13783043Y-12443443D01*
X13783043Y-12472014D01*
X13897328Y-12172014D02*
X14097328Y-12172014D01*
X13968757Y-12472014D01*
X14268757Y-12172014D02*
X14297328Y-12172014D01*
X14325900Y-12186300D01*
X14340186Y-12200586D01*
X14354471Y-12229157D01*
X14368757Y-12286300D01*
X14368757Y-12357729D01*
X14354471Y-12414871D01*
X14340186Y-12443443D01*
X14325900Y-12457729D01*
X14297328Y-12472014D01*
X14268757Y-12472014D01*
X14240186Y-12457729D01*
X14225900Y-12443443D01*
X14211614Y-12414871D01*
X14197328Y-12357729D01*
X14197328Y-12286300D01*
X14211614Y-12229157D01*
X14225900Y-12200586D01*
X14240186Y-12186300D01*
X14268757Y-12172014D01*
X14497328Y-12472014D02*
X14497328Y-12272014D01*
X14497328Y-12300586D02*
X14511614Y-12286300D01*
X14540186Y-12272014D01*
X14583043Y-12272014D01*
X14611614Y-12286300D01*
X14625900Y-12314871D01*
X14625900Y-12472014D01*
X14625900Y-12314871D02*
X14640186Y-12286300D01*
X14668757Y-12272014D01*
X14711614Y-12272014D01*
X14740186Y-12286300D01*
X14754471Y-12314871D01*
X14754471Y-12472014D01*
X14897328Y-12472014D02*
X14897328Y-12272014D01*
X14897328Y-12300586D02*
X14911614Y-12286300D01*
X14940186Y-12272014D01*
X14983043Y-12272014D01*
X15011614Y-12286300D01*
X15025900Y-12314871D01*
X15025900Y-12472014D01*
X15025900Y-12314871D02*
X15040186Y-12286300D01*
X15068757Y-12272014D01*
X15111614Y-12272014D01*
X15140186Y-12286300D01*
X15154471Y-12314871D01*
X15154471Y-12472014D01*
X15740186Y-12157729D02*
X15483043Y-12543443D01*
X16125900Y-12172014D02*
X16154471Y-12172014D01*
X16183043Y-12186300D01*
X16197328Y-12200586D01*
X16211614Y-12229157D01*
X16225900Y-12286300D01*
X16225900Y-12357729D01*
X16211614Y-12414871D01*
X16197328Y-12443443D01*
X16183043Y-12457729D01*
X16154471Y-12472014D01*
X16125900Y-12472014D01*
X16097328Y-12457729D01*
X16083043Y-12443443D01*
X16068757Y-12414871D01*
X16054471Y-12357729D01*
X16054471Y-12286300D01*
X16068757Y-12229157D01*
X16083043Y-12200586D01*
X16097328Y-12186300D01*
X16125900Y-12172014D01*
X16354471Y-12443443D02*
X16368757Y-12457729D01*
X16354471Y-12472014D01*
X16340186Y-12457729D01*
X16354471Y-12443443D01*
X16354471Y-12472014D01*
X16554471Y-12172014D02*
X16583043Y-12172014D01*
X16611614Y-12186300D01*
X16625900Y-12200586D01*
X16640185Y-12229157D01*
X16654471Y-12286300D01*
X16654471Y-12357729D01*
X16640185Y-12414871D01*
X16625900Y-12443443D01*
X16611614Y-12457729D01*
X16583043Y-12472014D01*
X16554471Y-12472014D01*
X16525900Y-12457729D01*
X16511614Y-12443443D01*
X16497328Y-12414871D01*
X16483043Y-12357729D01*
X16483043Y-12286300D01*
X16497328Y-12229157D01*
X16511614Y-12200586D01*
X16525900Y-12186300D01*
X16554471Y-12172014D01*
X16768757Y-12200586D02*
X16783043Y-12186300D01*
X16811614Y-12172014D01*
X16883043Y-12172014D01*
X16911614Y-12186300D01*
X16925900Y-12200586D01*
X16940186Y-12229157D01*
X16940186Y-12257729D01*
X16925900Y-12300586D01*
X16754471Y-12472014D01*
X16940186Y-12472014D01*
X17111614Y-12300586D02*
X17083043Y-12286300D01*
X17068757Y-12272014D01*
X17054471Y-12243443D01*
X17054471Y-12229157D01*
X17068757Y-12200586D01*
X17083043Y-12186300D01*
X17111614Y-12172014D01*
X17168757Y-12172014D01*
X17197328Y-12186300D01*
X17211614Y-12200586D01*
X17225900Y-12229157D01*
X17225900Y-12243443D01*
X17211614Y-12272014D01*
X17197328Y-12286300D01*
X17168757Y-12300586D01*
X17111614Y-12300586D01*
X17083043Y-12314871D01*
X17068757Y-12329157D01*
X17054471Y-12357729D01*
X17054471Y-12414871D01*
X17068757Y-12443443D01*
X17083043Y-12457729D01*
X17111614Y-12472014D01*
X17168757Y-12472014D01*
X17197328Y-12457729D01*
X17211614Y-12443443D01*
X17225900Y-12414871D01*
X17225900Y-12357729D01*
X17211614Y-12329157D01*
X17197328Y-12314871D01*
X17168757Y-12300586D01*
X17340186Y-12172014D02*
X17340186Y-12229157D01*
X17454471Y-12172014D02*
X17454471Y-12229157D01*
X17897328Y-12586300D02*
X17883043Y-12572014D01*
X17854471Y-12529157D01*
X17840186Y-12500586D01*
X17825900Y-12457729D01*
X17811614Y-12386300D01*
X17811614Y-12329157D01*
X17825900Y-12257729D01*
X17840186Y-12214871D01*
X17854471Y-12186300D01*
X17883043Y-12143443D01*
X17897328Y-12129157D01*
X17997328Y-12200586D02*
X18011614Y-12186300D01*
X18040186Y-12172014D01*
X18111614Y-12172014D01*
X18140186Y-12186300D01*
X18154471Y-12200586D01*
X18168757Y-12229157D01*
X18168757Y-12257729D01*
X18154471Y-12300586D01*
X17983043Y-12472014D01*
X18168757Y-12472014D01*
X18525900Y-12472014D02*
X18525900Y-12172014D01*
X18654471Y-12472014D02*
X18654471Y-12314871D01*
X18640186Y-12286300D01*
X18611614Y-12272014D01*
X18568757Y-12272014D01*
X18540186Y-12286300D01*
X18525900Y-12300586D01*
X18840186Y-12472014D02*
X18811614Y-12457729D01*
X18797328Y-12443443D01*
X18783043Y-12414871D01*
X18783043Y-12329157D01*
X18797328Y-12300586D01*
X18811614Y-12286300D01*
X18840186Y-12272014D01*
X18883043Y-12272014D01*
X18911614Y-12286300D01*
X18925900Y-12300586D01*
X18940186Y-12329157D01*
X18940186Y-12414871D01*
X18925900Y-12443443D01*
X18911614Y-12457729D01*
X18883043Y-12472014D01*
X18840186Y-12472014D01*
X19111614Y-12472014D02*
X19083043Y-12457729D01*
X19068757Y-12429157D01*
X19068757Y-12172014D01*
X19340186Y-12457729D02*
X19311614Y-12472014D01*
X19254471Y-12472014D01*
X19225900Y-12457729D01*
X19211614Y-12429157D01*
X19211614Y-12314871D01*
X19225900Y-12286300D01*
X19254471Y-12272014D01*
X19311614Y-12272014D01*
X19340186Y-12286300D01*
X19354471Y-12314871D01*
X19354471Y-12343443D01*
X19211614Y-12372014D01*
X19468757Y-12457729D02*
X19497329Y-12472014D01*
X19554471Y-12472014D01*
X19583043Y-12457729D01*
X19597329Y-12429157D01*
X19597329Y-12414871D01*
X19583043Y-12386300D01*
X19554471Y-12372014D01*
X19511614Y-12372014D01*
X19483043Y-12357729D01*
X19468757Y-12329157D01*
X19468757Y-12314871D01*
X19483043Y-12286300D01*
X19511614Y-12272014D01*
X19554471Y-12272014D01*
X19583043Y-12286300D01*
X19697328Y-12586300D02*
X19711614Y-12572014D01*
X19740186Y-12529157D01*
X19754471Y-12500586D01*
X19768757Y-12457729D01*
X19783043Y-12386300D01*
X19783043Y-12329157D01*
X19768757Y-12257729D01*
X19754471Y-12214871D01*
X19740186Y-12186300D01*
X19711614Y-12143443D01*
X19697328Y-12129157D01*
X13185900Y-12692300D02*
X13185900Y-12772300D01*
X13145900Y-12732300D02*
X13225900Y-12732300D01*
X13554471Y-12568014D02*
X13583043Y-12568014D01*
X13611614Y-12582300D01*
X13625900Y-12596586D01*
X13640186Y-12625157D01*
X13654471Y-12682300D01*
X13654471Y-12753729D01*
X13640186Y-12810871D01*
X13625900Y-12839443D01*
X13611614Y-12853729D01*
X13583043Y-12868014D01*
X13554471Y-12868014D01*
X13525900Y-12853729D01*
X13511614Y-12839443D01*
X13497328Y-12810871D01*
X13483043Y-12753729D01*
X13483043Y-12682300D01*
X13497328Y-12625157D01*
X13511614Y-12596586D01*
X13525900Y-12582300D01*
X13554471Y-12568014D01*
X13783043Y-12839443D02*
X13797328Y-12853729D01*
X13783043Y-12868014D01*
X13768757Y-12853729D01*
X13783043Y-12839443D01*
X13783043Y-12868014D01*
X13968757Y-12696586D02*
X13940186Y-12682300D01*
X13925900Y-12668014D01*
X13911614Y-12639443D01*
X13911614Y-12625157D01*
X13925900Y-12596586D01*
X13940186Y-12582300D01*
X13968757Y-12568014D01*
X14025900Y-12568014D01*
X14054471Y-12582300D01*
X14068757Y-12596586D01*
X14083043Y-12625157D01*
X14083043Y-12639443D01*
X14068757Y-12668014D01*
X14054471Y-12682300D01*
X14025900Y-12696586D01*
X13968757Y-12696586D01*
X13940186Y-12710871D01*
X13925900Y-12725157D01*
X13911614Y-12753729D01*
X13911614Y-12810871D01*
X13925900Y-12839443D01*
X13940186Y-12853729D01*
X13968757Y-12868014D01*
X14025900Y-12868014D01*
X14054471Y-12853729D01*
X14068757Y-12839443D01*
X14083043Y-12810871D01*
X14083043Y-12753729D01*
X14068757Y-12725157D01*
X14054471Y-12710871D01*
X14025900Y-12696586D01*
X14268757Y-12568014D02*
X14297328Y-12568014D01*
X14325900Y-12582300D01*
X14340186Y-12596586D01*
X14354471Y-12625157D01*
X14368757Y-12682300D01*
X14368757Y-12753729D01*
X14354471Y-12810871D01*
X14340186Y-12839443D01*
X14325900Y-12853729D01*
X14297328Y-12868014D01*
X14268757Y-12868014D01*
X14240186Y-12853729D01*
X14225900Y-12839443D01*
X14211614Y-12810871D01*
X14197328Y-12753729D01*
X14197328Y-12682300D01*
X14211614Y-12625157D01*
X14225900Y-12596586D01*
X14240186Y-12582300D01*
X14268757Y-12568014D01*
X14497328Y-12868014D02*
X14497328Y-12668014D01*
X14497328Y-12696586D02*
X14511614Y-12682300D01*
X14540186Y-12668014D01*
X14583043Y-12668014D01*
X14611614Y-12682300D01*
X14625900Y-12710871D01*
X14625900Y-12868014D01*
X14625900Y-12710871D02*
X14640186Y-12682300D01*
X14668757Y-12668014D01*
X14711614Y-12668014D01*
X14740186Y-12682300D01*
X14754471Y-12710871D01*
X14754471Y-12868014D01*
X14897328Y-12868014D02*
X14897328Y-12668014D01*
X14897328Y-12696586D02*
X14911614Y-12682300D01*
X14940186Y-12668014D01*
X14983043Y-12668014D01*
X15011614Y-12682300D01*
X15025900Y-12710871D01*
X15025900Y-12868014D01*
X15025900Y-12710871D02*
X15040186Y-12682300D01*
X15068757Y-12668014D01*
X15111614Y-12668014D01*
X15140186Y-12682300D01*
X15154471Y-12710871D01*
X15154471Y-12868014D01*
X15740186Y-12553729D02*
X15483043Y-12939443D01*
X16125900Y-12568014D02*
X16154471Y-12568014D01*
X16183043Y-12582300D01*
X16197328Y-12596586D01*
X16211614Y-12625157D01*
X16225900Y-12682300D01*
X16225900Y-12753729D01*
X16211614Y-12810871D01*
X16197328Y-12839443D01*
X16183043Y-12853729D01*
X16154471Y-12868014D01*
X16125900Y-12868014D01*
X16097328Y-12853729D01*
X16083043Y-12839443D01*
X16068757Y-12810871D01*
X16054471Y-12753729D01*
X16054471Y-12682300D01*
X16068757Y-12625157D01*
X16083043Y-12596586D01*
X16097328Y-12582300D01*
X16125900Y-12568014D01*
X16354471Y-12839443D02*
X16368757Y-12853729D01*
X16354471Y-12868014D01*
X16340186Y-12853729D01*
X16354471Y-12839443D01*
X16354471Y-12868014D01*
X16554471Y-12568014D02*
X16583043Y-12568014D01*
X16611614Y-12582300D01*
X16625900Y-12596586D01*
X16640185Y-12625157D01*
X16654471Y-12682300D01*
X16654471Y-12753729D01*
X16640185Y-12810871D01*
X16625900Y-12839443D01*
X16611614Y-12853729D01*
X16583043Y-12868014D01*
X16554471Y-12868014D01*
X16525900Y-12853729D01*
X16511614Y-12839443D01*
X16497328Y-12810871D01*
X16483043Y-12753729D01*
X16483043Y-12682300D01*
X16497328Y-12625157D01*
X16511614Y-12596586D01*
X16525900Y-12582300D01*
X16554471Y-12568014D01*
X16754471Y-12568014D02*
X16940186Y-12568014D01*
X16840186Y-12682300D01*
X16883043Y-12682300D01*
X16911614Y-12696586D01*
X16925900Y-12710871D01*
X16940186Y-12739443D01*
X16940186Y-12810871D01*
X16925900Y-12839443D01*
X16911614Y-12853729D01*
X16883043Y-12868014D01*
X16797328Y-12868014D01*
X16768757Y-12853729D01*
X16754471Y-12839443D01*
X17225900Y-12868014D02*
X17054471Y-12868014D01*
X17140186Y-12868014D02*
X17140186Y-12568014D01*
X17111614Y-12610871D01*
X17083043Y-12639443D01*
X17054471Y-12653729D01*
X17340186Y-12568014D02*
X17340186Y-12625157D01*
X17454471Y-12568014D02*
X17454471Y-12625157D01*
X17897328Y-12982300D02*
X17883043Y-12968014D01*
X17854471Y-12925157D01*
X17840186Y-12896586D01*
X17825900Y-12853729D01*
X17811614Y-12782300D01*
X17811614Y-12725157D01*
X17825900Y-12653729D01*
X17840186Y-12610871D01*
X17854471Y-12582300D01*
X17883043Y-12539443D01*
X17897328Y-12525157D01*
X17997328Y-12596586D02*
X18011614Y-12582300D01*
X18040186Y-12568014D01*
X18111614Y-12568014D01*
X18140186Y-12582300D01*
X18154471Y-12596586D01*
X18168757Y-12625157D01*
X18168757Y-12653729D01*
X18154471Y-12696586D01*
X17983043Y-12868014D01*
X18168757Y-12868014D01*
X18525900Y-12868014D02*
X18525900Y-12568014D01*
X18654471Y-12868014D02*
X18654471Y-12710871D01*
X18640186Y-12682300D01*
X18611614Y-12668014D01*
X18568757Y-12668014D01*
X18540186Y-12682300D01*
X18525900Y-12696586D01*
X18840186Y-12868014D02*
X18811614Y-12853729D01*
X18797328Y-12839443D01*
X18783043Y-12810871D01*
X18783043Y-12725157D01*
X18797328Y-12696586D01*
X18811614Y-12682300D01*
X18840186Y-12668014D01*
X18883043Y-12668014D01*
X18911614Y-12682300D01*
X18925900Y-12696586D01*
X18940186Y-12725157D01*
X18940186Y-12810871D01*
X18925900Y-12839443D01*
X18911614Y-12853729D01*
X18883043Y-12868014D01*
X18840186Y-12868014D01*
X19111614Y-12868014D02*
X19083043Y-12853729D01*
X19068757Y-12825157D01*
X19068757Y-12568014D01*
X19340186Y-12853729D02*
X19311614Y-12868014D01*
X19254471Y-12868014D01*
X19225900Y-12853729D01*
X19211614Y-12825157D01*
X19211614Y-12710871D01*
X19225900Y-12682300D01*
X19254471Y-12668014D01*
X19311614Y-12668014D01*
X19340186Y-12682300D01*
X19354471Y-12710871D01*
X19354471Y-12739443D01*
X19211614Y-12768014D01*
X19468757Y-12853729D02*
X19497329Y-12868014D01*
X19554471Y-12868014D01*
X19583043Y-12853729D01*
X19597329Y-12825157D01*
X19597329Y-12810871D01*
X19583043Y-12782300D01*
X19554471Y-12768014D01*
X19511614Y-12768014D01*
X19483043Y-12753729D01*
X19468757Y-12725157D01*
X19468757Y-12710871D01*
X19483043Y-12682300D01*
X19511614Y-12668014D01*
X19554471Y-12668014D01*
X19583043Y-12682300D01*
X19697328Y-12982300D02*
X19711614Y-12968014D01*
X19740186Y-12925157D01*
X19754471Y-12896586D01*
X19768757Y-12853729D01*
X19783043Y-12782300D01*
X19783043Y-12725157D01*
X19768757Y-12653729D01*
X19754471Y-12610871D01*
X19740186Y-12582300D01*
X19711614Y-12539443D01*
X19697328Y-12525157D01*
X13213997Y-13157037D02*
X13213997Y-13099563D01*
X13156523Y-13099563D01*
X13156523Y-13157037D01*
X13213997Y-13157037D01*
X13554471Y-12964014D02*
X13583043Y-12964014D01*
X13611614Y-12978300D01*
X13625900Y-12992586D01*
X13640186Y-13021157D01*
X13654471Y-13078300D01*
X13654471Y-13149729D01*
X13640186Y-13206871D01*
X13625900Y-13235443D01*
X13611614Y-13249729D01*
X13583043Y-13264014D01*
X13554471Y-13264014D01*
X13525900Y-13249729D01*
X13511614Y-13235443D01*
X13497328Y-13206871D01*
X13483043Y-13149729D01*
X13483043Y-13078300D01*
X13497328Y-13021157D01*
X13511614Y-12992586D01*
X13525900Y-12978300D01*
X13554471Y-12964014D01*
X13783043Y-13235443D02*
X13797328Y-13249729D01*
X13783043Y-13264014D01*
X13768757Y-13249729D01*
X13783043Y-13235443D01*
X13783043Y-13264014D01*
X13968757Y-13092586D02*
X13940186Y-13078300D01*
X13925900Y-13064014D01*
X13911614Y-13035443D01*
X13911614Y-13021157D01*
X13925900Y-12992586D01*
X13940186Y-12978300D01*
X13968757Y-12964014D01*
X14025900Y-12964014D01*
X14054471Y-12978300D01*
X14068757Y-12992586D01*
X14083043Y-13021157D01*
X14083043Y-13035443D01*
X14068757Y-13064014D01*
X14054471Y-13078300D01*
X14025900Y-13092586D01*
X13968757Y-13092586D01*
X13940186Y-13106871D01*
X13925900Y-13121157D01*
X13911614Y-13149729D01*
X13911614Y-13206871D01*
X13925900Y-13235443D01*
X13940186Y-13249729D01*
X13968757Y-13264014D01*
X14025900Y-13264014D01*
X14054471Y-13249729D01*
X14068757Y-13235443D01*
X14083043Y-13206871D01*
X14083043Y-13149729D01*
X14068757Y-13121157D01*
X14054471Y-13106871D01*
X14025900Y-13092586D01*
X14368757Y-13264014D02*
X14197328Y-13264014D01*
X14283043Y-13264014D02*
X14283043Y-12964014D01*
X14254471Y-13006871D01*
X14225900Y-13035443D01*
X14197328Y-13049729D01*
X14497328Y-13264014D02*
X14497328Y-13064014D01*
X14497328Y-13092586D02*
X14511614Y-13078300D01*
X14540186Y-13064014D01*
X14583043Y-13064014D01*
X14611614Y-13078300D01*
X14625900Y-13106871D01*
X14625900Y-13264014D01*
X14625900Y-13106871D02*
X14640186Y-13078300D01*
X14668757Y-13064014D01*
X14711614Y-13064014D01*
X14740186Y-13078300D01*
X14754471Y-13106871D01*
X14754471Y-13264014D01*
X14897328Y-13264014D02*
X14897328Y-13064014D01*
X14897328Y-13092586D02*
X14911614Y-13078300D01*
X14940186Y-13064014D01*
X14983043Y-13064014D01*
X15011614Y-13078300D01*
X15025900Y-13106871D01*
X15025900Y-13264014D01*
X15025900Y-13106871D02*
X15040186Y-13078300D01*
X15068757Y-13064014D01*
X15111614Y-13064014D01*
X15140186Y-13078300D01*
X15154471Y-13106871D01*
X15154471Y-13264014D01*
X15740186Y-12949729D02*
X15483043Y-13335443D01*
X16125900Y-12964014D02*
X16154471Y-12964014D01*
X16183043Y-12978300D01*
X16197328Y-12992586D01*
X16211614Y-13021157D01*
X16225900Y-13078300D01*
X16225900Y-13149729D01*
X16211614Y-13206871D01*
X16197328Y-13235443D01*
X16183043Y-13249729D01*
X16154471Y-13264014D01*
X16125900Y-13264014D01*
X16097328Y-13249729D01*
X16083043Y-13235443D01*
X16068757Y-13206871D01*
X16054471Y-13149729D01*
X16054471Y-13078300D01*
X16068757Y-13021157D01*
X16083043Y-12992586D01*
X16097328Y-12978300D01*
X16125900Y-12964014D01*
X16354471Y-13235443D02*
X16368757Y-13249729D01*
X16354471Y-13264014D01*
X16340186Y-13249729D01*
X16354471Y-13235443D01*
X16354471Y-13264014D01*
X16554471Y-12964014D02*
X16583043Y-12964014D01*
X16611614Y-12978300D01*
X16625900Y-12992586D01*
X16640185Y-13021157D01*
X16654471Y-13078300D01*
X16654471Y-13149729D01*
X16640185Y-13206871D01*
X16625900Y-13235443D01*
X16611614Y-13249729D01*
X16583043Y-13264014D01*
X16554471Y-13264014D01*
X16525900Y-13249729D01*
X16511614Y-13235443D01*
X16497328Y-13206871D01*
X16483043Y-13149729D01*
X16483043Y-13078300D01*
X16497328Y-13021157D01*
X16511614Y-12992586D01*
X16525900Y-12978300D01*
X16554471Y-12964014D01*
X16754471Y-12964014D02*
X16940186Y-12964014D01*
X16840186Y-13078300D01*
X16883043Y-13078300D01*
X16911614Y-13092586D01*
X16925900Y-13106871D01*
X16940186Y-13135443D01*
X16940186Y-13206871D01*
X16925900Y-13235443D01*
X16911614Y-13249729D01*
X16883043Y-13264014D01*
X16797328Y-13264014D01*
X16768757Y-13249729D01*
X16754471Y-13235443D01*
X17054471Y-12992586D02*
X17068757Y-12978300D01*
X17097328Y-12964014D01*
X17168757Y-12964014D01*
X17197328Y-12978300D01*
X17211614Y-12992586D01*
X17225900Y-13021157D01*
X17225900Y-13049729D01*
X17211614Y-13092586D01*
X17040186Y-13264014D01*
X17225900Y-13264014D01*
X17340186Y-12964014D02*
X17340186Y-13021157D01*
X17454471Y-12964014D02*
X17454471Y-13021157D01*
X17897328Y-13378300D02*
X17883043Y-13364014D01*
X17854471Y-13321157D01*
X17840186Y-13292586D01*
X17825900Y-13249729D01*
X17811614Y-13178300D01*
X17811614Y-13121157D01*
X17825900Y-13049729D01*
X17840186Y-13006871D01*
X17854471Y-12978300D01*
X17883043Y-12935443D01*
X17897328Y-12921157D01*
X18140186Y-13064014D02*
X18140186Y-13264014D01*
X18068757Y-12949729D02*
X17997328Y-13164014D01*
X18183043Y-13164014D01*
X18525900Y-13264014D02*
X18525900Y-12964014D01*
X18654471Y-13264014D02*
X18654471Y-13106871D01*
X18640186Y-13078300D01*
X18611614Y-13064014D01*
X18568757Y-13064014D01*
X18540186Y-13078300D01*
X18525900Y-13092586D01*
X18840186Y-13264014D02*
X18811614Y-13249729D01*
X18797328Y-13235443D01*
X18783043Y-13206871D01*
X18783043Y-13121157D01*
X18797328Y-13092586D01*
X18811614Y-13078300D01*
X18840186Y-13064014D01*
X18883043Y-13064014D01*
X18911614Y-13078300D01*
X18925900Y-13092586D01*
X18940186Y-13121157D01*
X18940186Y-13206871D01*
X18925900Y-13235443D01*
X18911614Y-13249729D01*
X18883043Y-13264014D01*
X18840186Y-13264014D01*
X19111614Y-13264014D02*
X19083043Y-13249729D01*
X19068757Y-13221157D01*
X19068757Y-12964014D01*
X19340186Y-13249729D02*
X19311614Y-13264014D01*
X19254471Y-13264014D01*
X19225900Y-13249729D01*
X19211614Y-13221157D01*
X19211614Y-13106871D01*
X19225900Y-13078300D01*
X19254471Y-13064014D01*
X19311614Y-13064014D01*
X19340186Y-13078300D01*
X19354471Y-13106871D01*
X19354471Y-13135443D01*
X19211614Y-13164014D01*
X19468757Y-13249729D02*
X19497329Y-13264014D01*
X19554471Y-13264014D01*
X19583043Y-13249729D01*
X19597329Y-13221157D01*
X19597329Y-13206871D01*
X19583043Y-13178300D01*
X19554471Y-13164014D01*
X19511614Y-13164014D01*
X19483043Y-13149729D01*
X19468757Y-13121157D01*
X19468757Y-13106871D01*
X19483043Y-13078300D01*
X19511614Y-13064014D01*
X19554471Y-13064014D01*
X19583043Y-13078300D01*
X19697328Y-13378300D02*
X19711614Y-13364014D01*
X19740186Y-13321157D01*
X19754471Y-13292586D01*
X19768757Y-13249729D01*
X19783043Y-13178300D01*
X19783043Y-13121157D01*
X19768757Y-13049729D01*
X19754471Y-13006871D01*
X19740186Y-12978300D01*
X19711614Y-12935443D01*
X19697328Y-12921157D01*
X13175862Y-13574338D02*
X13225900Y-13524300D01*
X13175862Y-13474262D01*
X13125824Y-13524300D01*
X13175862Y-13574338D01*
X13654471Y-13660014D02*
X13483043Y-13660014D01*
X13568757Y-13660014D02*
X13568757Y-13360014D01*
X13540186Y-13402871D01*
X13511614Y-13431443D01*
X13483043Y-13445729D01*
X13783043Y-13631443D02*
X13797328Y-13645729D01*
X13783043Y-13660014D01*
X13768757Y-13645729D01*
X13783043Y-13631443D01*
X13783043Y-13660014D01*
X13983043Y-13360014D02*
X14011614Y-13360014D01*
X14040186Y-13374300D01*
X14054471Y-13388586D01*
X14068757Y-13417157D01*
X14083043Y-13474300D01*
X14083043Y-13545729D01*
X14068757Y-13602871D01*
X14054471Y-13631443D01*
X14040186Y-13645729D01*
X14011614Y-13660014D01*
X13983043Y-13660014D01*
X13954471Y-13645729D01*
X13940186Y-13631443D01*
X13925900Y-13602871D01*
X13911614Y-13545729D01*
X13911614Y-13474300D01*
X13925900Y-13417157D01*
X13940186Y-13388586D01*
X13954471Y-13374300D01*
X13983043Y-13360014D01*
X14268757Y-13360014D02*
X14297328Y-13360014D01*
X14325900Y-13374300D01*
X14340186Y-13388586D01*
X14354471Y-13417157D01*
X14368757Y-13474300D01*
X14368757Y-13545729D01*
X14354471Y-13602871D01*
X14340186Y-13631443D01*
X14325900Y-13645729D01*
X14297328Y-13660014D01*
X14268757Y-13660014D01*
X14240186Y-13645729D01*
X14225900Y-13631443D01*
X14211614Y-13602871D01*
X14197328Y-13545729D01*
X14197328Y-13474300D01*
X14211614Y-13417157D01*
X14225900Y-13388586D01*
X14240186Y-13374300D01*
X14268757Y-13360014D01*
X14497328Y-13660014D02*
X14497328Y-13460014D01*
X14497328Y-13488586D02*
X14511614Y-13474300D01*
X14540186Y-13460014D01*
X14583043Y-13460014D01*
X14611614Y-13474300D01*
X14625900Y-13502871D01*
X14625900Y-13660014D01*
X14625900Y-13502871D02*
X14640186Y-13474300D01*
X14668757Y-13460014D01*
X14711614Y-13460014D01*
X14740186Y-13474300D01*
X14754471Y-13502871D01*
X14754471Y-13660014D01*
X14897328Y-13660014D02*
X14897328Y-13460014D01*
X14897328Y-13488586D02*
X14911614Y-13474300D01*
X14940186Y-13460014D01*
X14983043Y-13460014D01*
X15011614Y-13474300D01*
X15025900Y-13502871D01*
X15025900Y-13660014D01*
X15025900Y-13502871D02*
X15040186Y-13474300D01*
X15068757Y-13460014D01*
X15111614Y-13460014D01*
X15140186Y-13474300D01*
X15154471Y-13502871D01*
X15154471Y-13660014D01*
X15740186Y-13345729D02*
X15483043Y-13731443D01*
X16125900Y-13360014D02*
X16154471Y-13360014D01*
X16183043Y-13374300D01*
X16197328Y-13388586D01*
X16211614Y-13417157D01*
X16225900Y-13474300D01*
X16225900Y-13545729D01*
X16211614Y-13602871D01*
X16197328Y-13631443D01*
X16183043Y-13645729D01*
X16154471Y-13660014D01*
X16125900Y-13660014D01*
X16097328Y-13645729D01*
X16083043Y-13631443D01*
X16068757Y-13602871D01*
X16054471Y-13545729D01*
X16054471Y-13474300D01*
X16068757Y-13417157D01*
X16083043Y-13388586D01*
X16097328Y-13374300D01*
X16125900Y-13360014D01*
X16354471Y-13631443D02*
X16368757Y-13645729D01*
X16354471Y-13660014D01*
X16340186Y-13645729D01*
X16354471Y-13631443D01*
X16354471Y-13660014D01*
X16554471Y-13360014D02*
X16583043Y-13360014D01*
X16611614Y-13374300D01*
X16625900Y-13388586D01*
X16640185Y-13417157D01*
X16654471Y-13474300D01*
X16654471Y-13545729D01*
X16640185Y-13602871D01*
X16625900Y-13631443D01*
X16611614Y-13645729D01*
X16583043Y-13660014D01*
X16554471Y-13660014D01*
X16525900Y-13645729D01*
X16511614Y-13631443D01*
X16497328Y-13602871D01*
X16483043Y-13545729D01*
X16483043Y-13474300D01*
X16497328Y-13417157D01*
X16511614Y-13388586D01*
X16525900Y-13374300D01*
X16554471Y-13360014D01*
X16754471Y-13360014D02*
X16940186Y-13360014D01*
X16840186Y-13474300D01*
X16883043Y-13474300D01*
X16911614Y-13488586D01*
X16925900Y-13502871D01*
X16940186Y-13531443D01*
X16940186Y-13602871D01*
X16925900Y-13631443D01*
X16911614Y-13645729D01*
X16883043Y-13660014D01*
X16797328Y-13660014D01*
X16768757Y-13645729D01*
X16754471Y-13631443D01*
X17083043Y-13660014D02*
X17140186Y-13660014D01*
X17168757Y-13645729D01*
X17183043Y-13631443D01*
X17211614Y-13588586D01*
X17225900Y-13531443D01*
X17225900Y-13417157D01*
X17211614Y-13388586D01*
X17197328Y-13374300D01*
X17168757Y-13360014D01*
X17111614Y-13360014D01*
X17083043Y-13374300D01*
X17068757Y-13388586D01*
X17054471Y-13417157D01*
X17054471Y-13488586D01*
X17068757Y-13517157D01*
X17083043Y-13531443D01*
X17111614Y-13545729D01*
X17168757Y-13545729D01*
X17197328Y-13531443D01*
X17211614Y-13517157D01*
X17225900Y-13488586D01*
X17340186Y-13360014D02*
X17340186Y-13417157D01*
X17454471Y-13360014D02*
X17454471Y-13417157D01*
X17897328Y-13774300D02*
X17883043Y-13760014D01*
X17854471Y-13717157D01*
X17840186Y-13688586D01*
X17825900Y-13645729D01*
X17811614Y-13574300D01*
X17811614Y-13517157D01*
X17825900Y-13445729D01*
X17840186Y-13402871D01*
X17854471Y-13374300D01*
X17883043Y-13331443D01*
X17897328Y-13317157D01*
X17997328Y-13388586D02*
X18011614Y-13374300D01*
X18040186Y-13360014D01*
X18111614Y-13360014D01*
X18140186Y-13374300D01*
X18154471Y-13388586D01*
X18168757Y-13417157D01*
X18168757Y-13445729D01*
X18154471Y-13488586D01*
X17983043Y-13660014D01*
X18168757Y-13660014D01*
X18525900Y-13660014D02*
X18525900Y-13360014D01*
X18654471Y-13660014D02*
X18654471Y-13502871D01*
X18640186Y-13474300D01*
X18611614Y-13460014D01*
X18568757Y-13460014D01*
X18540186Y-13474300D01*
X18525900Y-13488586D01*
X18840186Y-13660014D02*
X18811614Y-13645729D01*
X18797328Y-13631443D01*
X18783043Y-13602871D01*
X18783043Y-13517157D01*
X18797328Y-13488586D01*
X18811614Y-13474300D01*
X18840186Y-13460014D01*
X18883043Y-13460014D01*
X18911614Y-13474300D01*
X18925900Y-13488586D01*
X18940186Y-13517157D01*
X18940186Y-13602871D01*
X18925900Y-13631443D01*
X18911614Y-13645729D01*
X18883043Y-13660014D01*
X18840186Y-13660014D01*
X19111614Y-13660014D02*
X19083043Y-13645729D01*
X19068757Y-13617157D01*
X19068757Y-13360014D01*
X19340186Y-13645729D02*
X19311614Y-13660014D01*
X19254471Y-13660014D01*
X19225900Y-13645729D01*
X19211614Y-13617157D01*
X19211614Y-13502871D01*
X19225900Y-13474300D01*
X19254471Y-13460014D01*
X19311614Y-13460014D01*
X19340186Y-13474300D01*
X19354471Y-13502871D01*
X19354471Y-13531443D01*
X19211614Y-13560014D01*
X19468757Y-13645729D02*
X19497329Y-13660014D01*
X19554471Y-13660014D01*
X19583043Y-13645729D01*
X19597329Y-13617157D01*
X19597329Y-13602871D01*
X19583043Y-13574300D01*
X19554471Y-13560014D01*
X19511614Y-13560014D01*
X19483043Y-13545729D01*
X19468757Y-13517157D01*
X19468757Y-13502871D01*
X19483043Y-13474300D01*
X19511614Y-13460014D01*
X19554471Y-13460014D01*
X19583043Y-13474300D01*
X19697328Y-13774300D02*
X19711614Y-13760014D01*
X19740186Y-13717157D01*
X19754471Y-13688586D01*
X19768757Y-13645729D01*
X19783043Y-13574300D01*
X19783043Y-13517157D01*
X19768757Y-13445729D01*
X19754471Y-13402871D01*
X19740186Y-13374300D01*
X19711614Y-13331443D01*
X19697328Y-13317157D01*
X13073500Y-13844100D02*
X13225900Y-13996500D01*
X13225900Y-13844100D02*
X13073500Y-13996500D01*
X13225900Y-13920300D02*
G75*
G03X13225900Y-13920300I-76200J0D01*
G01*
X13654471Y-14056014D02*
X13483043Y-14056014D01*
X13568757Y-14056014D02*
X13568757Y-13756014D01*
X13540186Y-13798871D01*
X13511614Y-13827443D01*
X13483043Y-13841729D01*
X13783043Y-14027443D02*
X13797328Y-14041729D01*
X13783043Y-14056014D01*
X13768757Y-14041729D01*
X13783043Y-14027443D01*
X13783043Y-14056014D01*
X14068757Y-13756014D02*
X13925900Y-13756014D01*
X13911614Y-13898871D01*
X13925900Y-13884586D01*
X13954471Y-13870300D01*
X14025900Y-13870300D01*
X14054471Y-13884586D01*
X14068757Y-13898871D01*
X14083043Y-13927443D01*
X14083043Y-13998871D01*
X14068757Y-14027443D01*
X14054471Y-14041729D01*
X14025900Y-14056014D01*
X13954471Y-14056014D01*
X13925900Y-14041729D01*
X13911614Y-14027443D01*
X14197328Y-13784586D02*
X14211614Y-13770300D01*
X14240186Y-13756014D01*
X14311614Y-13756014D01*
X14340186Y-13770300D01*
X14354471Y-13784586D01*
X14368757Y-13813157D01*
X14368757Y-13841729D01*
X14354471Y-13884586D01*
X14183043Y-14056014D01*
X14368757Y-14056014D01*
X14497328Y-14056014D02*
X14497328Y-13856014D01*
X14497328Y-13884586D02*
X14511614Y-13870300D01*
X14540186Y-13856014D01*
X14583043Y-13856014D01*
X14611614Y-13870300D01*
X14625900Y-13898871D01*
X14625900Y-14056014D01*
X14625900Y-13898871D02*
X14640186Y-13870300D01*
X14668757Y-13856014D01*
X14711614Y-13856014D01*
X14740186Y-13870300D01*
X14754471Y-13898871D01*
X14754471Y-14056014D01*
X14897328Y-14056014D02*
X14897328Y-13856014D01*
X14897328Y-13884586D02*
X14911614Y-13870300D01*
X14940186Y-13856014D01*
X14983043Y-13856014D01*
X15011614Y-13870300D01*
X15025900Y-13898871D01*
X15025900Y-14056014D01*
X15025900Y-13898871D02*
X15040186Y-13870300D01*
X15068757Y-13856014D01*
X15111614Y-13856014D01*
X15140186Y-13870300D01*
X15154471Y-13898871D01*
X15154471Y-14056014D01*
X15740186Y-13741729D02*
X15483043Y-14127443D01*
X16125900Y-13756014D02*
X16154471Y-13756014D01*
X16183043Y-13770300D01*
X16197328Y-13784586D01*
X16211614Y-13813157D01*
X16225900Y-13870300D01*
X16225900Y-13941729D01*
X16211614Y-13998871D01*
X16197328Y-14027443D01*
X16183043Y-14041729D01*
X16154471Y-14056014D01*
X16125900Y-14056014D01*
X16097328Y-14041729D01*
X16083043Y-14027443D01*
X16068757Y-13998871D01*
X16054471Y-13941729D01*
X16054471Y-13870300D01*
X16068757Y-13813157D01*
X16083043Y-13784586D01*
X16097328Y-13770300D01*
X16125900Y-13756014D01*
X16354471Y-14027443D02*
X16368757Y-14041729D01*
X16354471Y-14056014D01*
X16340186Y-14041729D01*
X16354471Y-14027443D01*
X16354471Y-14056014D01*
X16554471Y-13756014D02*
X16583043Y-13756014D01*
X16611614Y-13770300D01*
X16625900Y-13784586D01*
X16640185Y-13813157D01*
X16654471Y-13870300D01*
X16654471Y-13941729D01*
X16640185Y-13998871D01*
X16625900Y-14027443D01*
X16611614Y-14041729D01*
X16583043Y-14056014D01*
X16554471Y-14056014D01*
X16525900Y-14041729D01*
X16511614Y-14027443D01*
X16497328Y-13998871D01*
X16483043Y-13941729D01*
X16483043Y-13870300D01*
X16497328Y-13813157D01*
X16511614Y-13784586D01*
X16525900Y-13770300D01*
X16554471Y-13756014D01*
X16911614Y-13756014D02*
X16854471Y-13756014D01*
X16825900Y-13770300D01*
X16811614Y-13784586D01*
X16783043Y-13827443D01*
X16768757Y-13884586D01*
X16768757Y-13998871D01*
X16783043Y-14027443D01*
X16797328Y-14041729D01*
X16825900Y-14056014D01*
X16883043Y-14056014D01*
X16911614Y-14041729D01*
X16925900Y-14027443D01*
X16940186Y-13998871D01*
X16940186Y-13927443D01*
X16925900Y-13898871D01*
X16911614Y-13884586D01*
X16883043Y-13870300D01*
X16825900Y-13870300D01*
X16797328Y-13884586D01*
X16783043Y-13898871D01*
X16768757Y-13927443D01*
X17125900Y-13756014D02*
X17154471Y-13756014D01*
X17183043Y-13770300D01*
X17197328Y-13784586D01*
X17211614Y-13813157D01*
X17225900Y-13870300D01*
X17225900Y-13941729D01*
X17211614Y-13998871D01*
X17197328Y-14027443D01*
X17183043Y-14041729D01*
X17154471Y-14056014D01*
X17125900Y-14056014D01*
X17097328Y-14041729D01*
X17083043Y-14027443D01*
X17068757Y-13998871D01*
X17054471Y-13941729D01*
X17054471Y-13870300D01*
X17068757Y-13813157D01*
X17083043Y-13784586D01*
X17097328Y-13770300D01*
X17125900Y-13756014D01*
X17340186Y-13756014D02*
X17340186Y-13813157D01*
X17454471Y-13756014D02*
X17454471Y-13813157D01*
X17897328Y-14170300D02*
X17883043Y-14156014D01*
X17854471Y-14113157D01*
X17840186Y-14084586D01*
X17825900Y-14041729D01*
X17811614Y-13970300D01*
X17811614Y-13913157D01*
X17825900Y-13841729D01*
X17840186Y-13798871D01*
X17854471Y-13770300D01*
X17883043Y-13727443D01*
X17897328Y-13713157D01*
X17983043Y-13756014D02*
X18168757Y-13756014D01*
X18068757Y-13870300D01*
X18111614Y-13870300D01*
X18140186Y-13884586D01*
X18154471Y-13898871D01*
X18168757Y-13927443D01*
X18168757Y-13998871D01*
X18154471Y-14027443D01*
X18140186Y-14041729D01*
X18111614Y-14056014D01*
X18025900Y-14056014D01*
X17997328Y-14041729D01*
X17983043Y-14027443D01*
X18525900Y-14056014D02*
X18525900Y-13756014D01*
X18654471Y-14056014D02*
X18654471Y-13898871D01*
X18640186Y-13870300D01*
X18611614Y-13856014D01*
X18568757Y-13856014D01*
X18540186Y-13870300D01*
X18525900Y-13884586D01*
X18840186Y-14056014D02*
X18811614Y-14041729D01*
X18797328Y-14027443D01*
X18783043Y-13998871D01*
X18783043Y-13913157D01*
X18797328Y-13884586D01*
X18811614Y-13870300D01*
X18840186Y-13856014D01*
X18883043Y-13856014D01*
X18911614Y-13870300D01*
X18925900Y-13884586D01*
X18940186Y-13913157D01*
X18940186Y-13998871D01*
X18925900Y-14027443D01*
X18911614Y-14041729D01*
X18883043Y-14056014D01*
X18840186Y-14056014D01*
X19111614Y-14056014D02*
X19083043Y-14041729D01*
X19068757Y-14013157D01*
X19068757Y-13756014D01*
X19340186Y-14041729D02*
X19311614Y-14056014D01*
X19254471Y-14056014D01*
X19225900Y-14041729D01*
X19211614Y-14013157D01*
X19211614Y-13898871D01*
X19225900Y-13870300D01*
X19254471Y-13856014D01*
X19311614Y-13856014D01*
X19340186Y-13870300D01*
X19354471Y-13898871D01*
X19354471Y-13927443D01*
X19211614Y-13956014D01*
X19468757Y-14041729D02*
X19497329Y-14056014D01*
X19554471Y-14056014D01*
X19583043Y-14041729D01*
X19597329Y-14013157D01*
X19597329Y-13998871D01*
X19583043Y-13970300D01*
X19554471Y-13956014D01*
X19511614Y-13956014D01*
X19483043Y-13941729D01*
X19468757Y-13913157D01*
X19468757Y-13898871D01*
X19483043Y-13870300D01*
X19511614Y-13856014D01*
X19554471Y-13856014D01*
X19583043Y-13870300D01*
X19697328Y-14170300D02*
X19711614Y-14156014D01*
X19740186Y-14113157D01*
X19754471Y-14084586D01*
X19768757Y-14041729D01*
X19783043Y-13970300D01*
X19783043Y-13913157D01*
X19768757Y-13841729D01*
X19754471Y-13798871D01*
X19740186Y-13770300D01*
X19711614Y-13727443D01*
X19697328Y-13713157D01*
M02*
