G04 #@! TF.FileFunction,Legend,Top*
%FSLAX46Y46*%
G04 Gerber Fmt 4.6, Leading zero omitted, Abs format (unit mm)*
G04 Created by KiCad (PCBNEW 4.0.2-stable) date 07/05/2016 12:43:24*
%MOMM*%
G01*
G04 APERTURE LIST*
%ADD10C,0.100000*%
%ADD11C,0.300000*%
%ADD12C,0.150000*%
G04 APERTURE END LIST*
D10*
D11*
X151324857Y-94404571D02*
X151324857Y-92904571D01*
X152182000Y-94404571D01*
X152182000Y-92904571D01*
X153396286Y-93618857D02*
X153610572Y-93690286D01*
X153682000Y-93761714D01*
X153753429Y-93904571D01*
X153753429Y-94118857D01*
X153682000Y-94261714D01*
X153610572Y-94333143D01*
X153467714Y-94404571D01*
X152896286Y-94404571D01*
X152896286Y-92904571D01*
X153396286Y-92904571D01*
X153539143Y-92976000D01*
X153610572Y-93047429D01*
X153682000Y-93190286D01*
X153682000Y-93333143D01*
X153610572Y-93476000D01*
X153539143Y-93547429D01*
X153396286Y-93618857D01*
X152896286Y-93618857D01*
X154396286Y-93833143D02*
X155539143Y-93833143D01*
X156253429Y-94404571D02*
X156253429Y-92904571D01*
X156896286Y-93976000D02*
X157610572Y-93976000D01*
X156753429Y-94404571D02*
X157253429Y-92904571D01*
X157753429Y-94404571D01*
D12*
X160782000Y-92456000D02*
X155194000Y-92456000D01*
X160782000Y-109728000D02*
X160782000Y-92456000D01*
X155194000Y-109728000D02*
X160782000Y-109728000D01*
X132334000Y-92456000D02*
X133350000Y-92456000D01*
X132334000Y-109728000D02*
X132334000Y-92456000D01*
X155194000Y-109728000D02*
X132334000Y-109728000D01*
X133350000Y-92456000D02*
X155194000Y-92456000D01*
X149590000Y-104112000D02*
X142590000Y-104112000D01*
X142590000Y-104112000D02*
X142590000Y-100612000D01*
X142590000Y-100612000D02*
X149590000Y-100612000D01*
X149590000Y-100612000D02*
X149590000Y-104112000D01*
X146249000Y-94698000D02*
X146249000Y-94898000D01*
X146249000Y-97292000D02*
X146249000Y-97112000D01*
X143021256Y-96981643D02*
G75*
G03X146249000Y-97298000I1727744J1003643D01*
G01*
X143696994Y-97111068D02*
G75*
G03X145800000Y-97112000I1052006J1133068D01*
G01*
X146236220Y-94671274D02*
G75*
G03X142999000Y-95018000I-1497220J-1306726D01*
G01*
X145762889Y-94898747D02*
G75*
G03X143715000Y-94918000I-1013889J-1079253D01*
G01*
X150368520Y-106677460D02*
X151765520Y-106677460D01*
X145923520Y-106677460D02*
X144399520Y-106677460D01*
X146304520Y-105915460D02*
X146304520Y-107439460D01*
X146050520Y-105915460D02*
X146050520Y-107439460D01*
X145796520Y-106677460D02*
X145796520Y-107439460D01*
X145796520Y-107439460D02*
X150368520Y-107439460D01*
X150368520Y-107439460D02*
X150368520Y-105915460D01*
X150368520Y-105915460D02*
X145796520Y-105915460D01*
X145796520Y-105915460D02*
X145796520Y-106677460D01*
X133350000Y-93472000D02*
X140970000Y-93472000D01*
X133350000Y-108712000D02*
X140970000Y-108712000D01*
X134620000Y-93472000D02*
X134620000Y-108712000D01*
X140970000Y-93472000D02*
X140970000Y-108712000D01*
X133350000Y-93472000D02*
X133350000Y-108712000D01*
X158496000Y-95758000D02*
X158496000Y-96266000D01*
X158496000Y-103378000D02*
X158496000Y-102870000D01*
X158496000Y-102870000D02*
X159512000Y-102870000D01*
X159512000Y-102870000D02*
X159512000Y-96266000D01*
X159512000Y-96266000D02*
X157480000Y-96266000D01*
X157480000Y-96266000D02*
X157480000Y-102870000D01*
X157480000Y-102870000D02*
X158496000Y-102870000D01*
X159004000Y-96266000D02*
X159512000Y-96774000D01*
X154686000Y-95758000D02*
X154686000Y-96266000D01*
X154686000Y-103378000D02*
X154686000Y-102870000D01*
X154686000Y-102870000D02*
X155702000Y-102870000D01*
X155702000Y-102870000D02*
X155702000Y-96266000D01*
X155702000Y-96266000D02*
X153670000Y-96266000D01*
X153670000Y-96266000D02*
X153670000Y-102870000D01*
X153670000Y-102870000D02*
X154686000Y-102870000D01*
X155194000Y-96266000D02*
X155702000Y-96774000D01*
X148677334Y-99671143D02*
X148629715Y-99718762D01*
X148486858Y-99766381D01*
X148391620Y-99766381D01*
X148248762Y-99718762D01*
X148153524Y-99623524D01*
X148105905Y-99528286D01*
X148058286Y-99337810D01*
X148058286Y-99194952D01*
X148105905Y-99004476D01*
X148153524Y-98909238D01*
X148248762Y-98814000D01*
X148391620Y-98766381D01*
X148486858Y-98766381D01*
X148629715Y-98814000D01*
X148677334Y-98861619D01*
X149629715Y-99766381D02*
X149058286Y-99766381D01*
X149344000Y-99766381D02*
X149344000Y-98766381D01*
X149248762Y-98909238D01*
X149153524Y-99004476D01*
X149058286Y-99052095D01*
X141501905Y-99512381D02*
X141501905Y-98512381D01*
X141740000Y-98512381D01*
X141882858Y-98560000D01*
X141978096Y-98655238D01*
X142025715Y-98750476D01*
X142073334Y-98940952D01*
X142073334Y-99083810D01*
X142025715Y-99274286D01*
X141978096Y-99369524D01*
X141882858Y-99464762D01*
X141740000Y-99512381D01*
X141501905Y-99512381D01*
X143025715Y-99512381D02*
X142454286Y-99512381D01*
X142740000Y-99512381D02*
X142740000Y-98512381D01*
X142644762Y-98655238D01*
X142549524Y-98750476D01*
X142454286Y-98798095D01*
X147820095Y-94178381D02*
X147820095Y-93178381D01*
X148391524Y-94178381D02*
X147962952Y-93606952D01*
X148391524Y-93178381D02*
X147820095Y-93749810D01*
X147597905Y-108910381D02*
X147597905Y-107910381D01*
X147836000Y-107910381D01*
X147978858Y-107958000D01*
X148074096Y-108053238D01*
X148121715Y-108148476D01*
X148169334Y-108338952D01*
X148169334Y-108481810D01*
X148121715Y-108672286D01*
X148074096Y-108767524D01*
X147978858Y-108862762D01*
X147836000Y-108910381D01*
X147597905Y-108910381D01*
X148550286Y-108005619D02*
X148597905Y-107958000D01*
X148693143Y-107910381D01*
X148931239Y-107910381D01*
X149026477Y-107958000D01*
X149074096Y-108005619D01*
X149121715Y-108100857D01*
X149121715Y-108196095D01*
X149074096Y-108338952D01*
X148502667Y-108910381D01*
X149121715Y-108910381D01*
X141501905Y-108910381D02*
X141501905Y-107910381D01*
X142073334Y-108910381D02*
X141644762Y-108338952D01*
X142073334Y-107910381D02*
X141501905Y-108481810D01*
X143025715Y-108910381D02*
X142454286Y-108910381D01*
X142740000Y-108910381D02*
X142740000Y-107910381D01*
X142644762Y-108053238D01*
X142549524Y-108148476D01*
X142454286Y-108196095D01*
X158948381Y-99734666D02*
X158472190Y-100068000D01*
X158948381Y-100306095D02*
X157948381Y-100306095D01*
X157948381Y-99925142D01*
X157996000Y-99829904D01*
X158043619Y-99782285D01*
X158138857Y-99734666D01*
X158281714Y-99734666D01*
X158376952Y-99782285D01*
X158424571Y-99829904D01*
X158472190Y-99925142D01*
X158472190Y-100306095D01*
X158948381Y-98782285D02*
X158948381Y-99353714D01*
X158948381Y-99068000D02*
X157948381Y-99068000D01*
X158091238Y-99163238D01*
X158186476Y-99258476D01*
X158234095Y-99353714D01*
X155138381Y-99734666D02*
X154662190Y-100068000D01*
X155138381Y-100306095D02*
X154138381Y-100306095D01*
X154138381Y-99925142D01*
X154186000Y-99829904D01*
X154233619Y-99782285D01*
X154328857Y-99734666D01*
X154471714Y-99734666D01*
X154566952Y-99782285D01*
X154614571Y-99829904D01*
X154662190Y-99925142D01*
X154662190Y-100306095D01*
X154233619Y-99353714D02*
X154186000Y-99306095D01*
X154138381Y-99210857D01*
X154138381Y-98972761D01*
X154186000Y-98877523D01*
X154233619Y-98829904D01*
X154328857Y-98782285D01*
X154424095Y-98782285D01*
X154566952Y-98829904D01*
X155138381Y-99401333D01*
X155138381Y-98782285D01*
M02*
